<svg width="17" height="18" viewBox="0 0 17 18" xmlns="http://www.w3.org/2000/svg" xmlns:xlink="http://www.w3.org/1999/xlink"><title>Combined shape 2075</title><defs><path d="M1012.717 17.002a2.22 2.22 0 012.22 2.22v13.492a2.22 2.22 0 01-2.22 2.22h-12.471a2.22 2.22 0 01-2.22-2.22V19.222a2.22 2.22 0 012.22-2.22h12.47zm1.27 15.712V19.316c0-.736-.597-1.332-1.333-1.332h-12.408c-.736 0-1.27.596-1.27 1.332v13.398c0 .735.534 1.3 1.27 1.3h12.408c.736 0 1.332-.565 1.332-1.3zM1002 23.969h8.99v.906H1002v-.906zm0 3h8.99v.906H1002v-.906zm0 3.062h4.999v.875H1002v-.875zm0-9.062h8.99v.906H1002v-.906z" id="a"/></defs><g transform="translate(-998 -17)" fill="none" fill-rule="evenodd"><use fill="#FFF" xlink:href="#a"/><use fill="#818690" xlink:href="#a"/></g></svg>